# xmcd
#
# Track frame offsets:
#	150
#	25020
#	46218
#	60777
#	78786
#	95894
#	115468
#	144826
#	166347
#	188666
#	207682
#	223873
#
# Disc length: 3101 seconds
# Revision: 0
# Processed by: cddbd v1.5.2PL0 Copyright (c) Steve Scherf et al.
# Submitted via: dBpowerAMP V12.0
#
DISCID=a10c1b0c
DTITLE=Various Artist - The Blues Magazine: Supercharged
DYEAR=2015
DGENRE=Blues
TTITLE0=Laurence Jones - Good Morning Blues
TTITLE1=Beth Hart - Trouble
TTITLE2=Philipp Fankhauser - Runnin' In Circles
TTITLE3=Sean Webster and The Dead Lines - The Mayor
TTITLE4=Robben Ford - Stone Cold Heaven
TTITLE5=Paul Jones - Sit Back Down
TTITLE6=Joe Bonamassa - Evil (Is Going On)
TTITLE7=Innes Sibun - One Of These Days
TTITLE8=Eddy Smith - Blood On Your Hands
TTITLE9=Girls With Guitars - Wish You Hadn't Gone
TTITLE10=The Black Circles - Gypsy Girl
TTITLE11=Junkyard Choir - Get It On
EXTD=
EXTT0=
EXTT1=
EXTT2=
EXTT3=
EXTT4=
EXTT5=
EXTT6=
EXTT7=
EXTT8=
EXTT9=
EXTT10=
EXTT11=
PLAYORDER=
